<?xml version="1.0" encoding="UTF-8"?>
<svg viewBox="0 0 512 512" xmlns="http://www.w3.org/2000/svg">
<path d="m317.89 256c0 30.72-24.747 54.613-54.613 54.613-30.72 0-54.613-24.747-54.613-54.613s24.747-54.613 54.613-54.613c29.867 0 54.613 23.893 54.613 54.613" fill="#006631"/>
<path d="m262.42 17.067c-40.107 0-82.773 96.427-82.773 238.93s42.667 238.93 82.773 238.93c9.387 0 17.92-5.12 27.307-14.507-5.12-5.973-8.533-14.507-8.533-23.04 0-21.333 18.773-38.4 40.107-35.84 15.359-45.226 23.892-104.11 23.892-165.55 0.853-142.51-42.667-238.93-82.773-238.93m0 494.93c-56.32 0-99.84-112.64-99.84-256s44.373-256 99.84-256c56.32 0 100.69 112.64 100.69 256 0 67.413-10.24 130.56-28.16 179.2l-2.56 7.68-7.68-2.56c-2.56-0.853-4.267-0.853-6.827-0.853-10.24 0-18.773 8.533-18.773 18.773 0 5.973 2.56 11.947 7.68 15.36l6.827 5.12-5.12 6.827c-13.654 17.066-29.014 26.453-46.08 26.453" fill="#D1D4D1"/>
<path d="m364.82 112.64c-46.08 12.8-98.987 39.253-149.33 75.093-83.627 58.88-145.07 129.71-152.75 177.49-1.707 11.093 0 20.48 4.267 27.307 29.013 39.253 131.41 10.24 243.2-68.267 87.893-61.44 147.63-128 154.45-173.23 1.707-12.8 0-23.04-6.827-31.573-5.973-7.68-15.36-12.8-27.307-14.507-2.56 7.68-6.827 15.36-13.653 19.627-7.68 5.12-17.067 7.68-27.307 5.973-9.387-1.707-17.92-6.827-23.04-14.507 0-0.853-0.853-2.56-1.706-3.413m-253.44 314.03c-28.16 0-47.787-8.533-58.88-23.893-6.827-10.24-9.387-23.893-6.827-40.107 8.533-52.053 72.533-128 159.57-188.59 55.467-38.4 112.64-67.413 162.13-79.36l8.533-1.707 2.56 8.533c0.853 2.56 1.707 4.267 2.56 5.973 2.56 4.267 7.68 6.827 11.947 7.68 5.12 0.853 10.24 0 14.507-3.413 5.12-3.413 7.68-9.387 7.68-15.36v-8.533l8.533 0.853c22.187 0.853 38.4 8.533 47.787 22.187 9.387 11.947 12.8 27.307 9.387 44.373-7.68 50.347-68.267 119.47-162.13 185.17-88.747 60.588-159.57 86.188-207.36 86.188" fill="#BCBCBC"/>
<path d="m93.464 209.07c28.16 38.4 70.827 79.36 122.03 115.2 93.867 65.707 186.03 92.16 225.28 83.627 9.387-1.707 15.36-5.973 18.773-11.093 25.6-45.227-32.427-127.15-149.33-209.07-109.23-75.947-215.89-106.67-243.2-68.267-5.12 7.68-6.827 17.92-3.413 30.72 8.533-0.853 16.213 1.707 23.893 5.973 7.68 5.12 12.8 13.653 14.507 23.04s-0.853 18.773-5.973 27.307c-0.854 0.853-1.707 1.706-2.56 2.56m330.24 217.6c-54.613 0-141.65-34.133-217.6-87.893-55.467-38.4-101.55-83.627-130.56-125.44l-5.12-6.827 6.827-5.12c1.707-1.707 3.413-2.56 4.267-4.267 2.56-4.267 4.267-9.387 3.413-14.507-0.853-5.12-3.413-9.387-7.68-11.947-5.12-3.413-11.093-4.267-17.067-2.56l-8.533 2.56-2.56-8.533c-6.827-22.187-5.12-40.107 4.267-52.907 38.4-52.907 163.84-7.68 267.09 64.853 128 89.6 185.17 176.64 152.75 231.25-5.973 9.387-15.36 16.213-29.867 18.773-5.974 1.708-12.801 2.562-19.627 2.562" fill="#aaa"/>
<path d="m426.26 74.24c-11.093-16.213-34.133-20.48-50.347-8.533-16.213 11.093-20.48 34.133-8.533 50.347 5.12 7.68 13.653 12.8 23.04 14.507 1.707 0 4.267 0.853 5.973 0.853 7.68 0 14.507-2.56 20.48-6.827 7.68-5.12 12.8-13.653 14.507-23.04 2.56-9.387 0-18.774-5.12-27.307" fill="#3b39d3"/>
<path d="m86.637 156.16c-16.213-11.093-38.4-7.68-50.347 8.533-11.093 16.213-7.68 38.4 8.533 50.347 5.973 4.267 13.653 6.827 20.48 6.827 1.707 0 4.267 0 5.973-0.853 9.387-1.707 17.92-6.827 23.04-14.507 12.801-17.067 8.534-39.254-7.679-50.347" fill="#ec3e71"/>
<path d="m317.89 421.55c-19.627 0-35.84 16.213-35.84 35.84s16.213 35.84 35.84 35.84 35.84-16.213 35.84-35.84-16.213-35.84-35.84-35.84" fill="#f2681f"/>
</svg>
