<?xml version="1.0" encoding="iso-8859-1"?>
<svg version="1.1" id="Capa_1" xmlns="http://www.w3.org/2000/svg" xmlns:xlink="http://www.w3.org/1999/xlink" x="0px" y="0px"
	 viewBox="0 0 512 512" style="enable-background:new 0 0 512 512;" xml:space="preserve">
<path style="fill:#FCC74F;" d="M412.8,122.667H34.133v57.6v39.467V291.2c0,10.667,6.4,19.2,17.067,21.333
	c11.733,2.133,23.467-8.533,23.467-20.267v-60.8c0-6.4,5.333-11.733,11.733-11.733l0,0c6.4,0,11.733,5.333,11.733,11.733v35.2
	c0,10.667,6.4,19.2,17.067,21.333c12.8,2.133,23.467-7.467,23.467-20.267v-36.267c0-6.4,5.333-11.733,11.733-11.733l0,0
	c6.4,0,11.733,5.333,11.733,11.733v17.067c0,6.4,5.333,11.733,11.733,11.733l0,0c6.4,0,11.733-5.333,11.733-11.733v-12.8
	c0-8.533,7.467-16,16-16h8.533c8.533,0,16,7.467,16,16l0,0c0,11.733,9.6,20.267,20.267,20.267l0,0
	c11.733,0,20.267-9.6,20.267-20.267v-16H412.8V122.667z"/>
<path style="fill:#40596B;" d="M448,54.4h-20.267v42.667H448c11.733,0,21.333,9.6,21.333,21.333v115.2
	c0,11.733-9.6,21.333-21.333,21.333H334.933c-35.2,0-64,28.8-64,64v25.6H313.6v-25.6c0-11.733,9.6-21.333,21.333-21.333H448
	c35.2,0,64-28.8,64-64V118.4C512,82.133,483.2,54.4,448,54.4z"/>
<path style="fill:#F1543F;" d="M318.933,353.067h-54.4c-3.2,0-6.4-3.2-6.4-6.4l0,0c0-3.2,3.2-6.4,6.4-6.4h54.4
	c3.2,0,6.4,3.2,6.4,6.4l0,0C325.333,349.867,323.2,353.067,318.933,353.067z"/>
<path style="fill:#FF7058;" d="M292.267,512L292.267,512c-26.667,0-46.933-23.467-42.667-50.133l17.067-108.8H316.8l18.133,108.8
	C339.2,488.533,317.867,512,292.267,512z"/>
<rect x="34.133" y="138.667" style="fill:#F8B64C;" width="379.733" height="21.333"/>
<path style="fill:#FFD15C;" d="M411.733,150.4H35.2c-11.733,0-21.333-9.6-21.333-21.333V21.333C13.867,9.6,23.467,0,35.2,0h377.6
	c11.733,0,21.333,9.6,21.333,21.333v107.733C433.067,140.8,423.467,150.4,411.733,150.4z"/>
<rect y="56.533" style="fill:#F8B64C;" width="13.867" height="36.267"/>
</svg>
