<?xml version="1.0" encoding="UTF-8" standalone="no"?>
<!-- Generator: Adobe Illustrator 19.0.0, SVG Export Plug-In . SVG Version: 6.00 Build 0)  -->

<svg
   xmlns:dc="http://purl.org/dc/elements/1.1/"
   xmlns:cc="http://creativecommons.org/ns#"
   xmlns:rdf="http://www.w3.org/1999/02/22-rdf-syntax-ns#"
   xmlns:svg="http://www.w3.org/2000/svg"
   xmlns="http://www.w3.org/2000/svg"
   xmlns:sodipodi="http://sodipodi.sourceforge.net/DTD/sodipodi-0.dtd"
   xmlns:inkscape="http://www.inkscape.org/namespaces/inkscape"
   version="1.1"
   id="Capa_1"
   x="0px"
   y="0px"
   viewBox="0 0 512 512"
   style="enable-background:new 0 0 512 512;"
   xml:space="preserve"
   sodipodi:docname="color-wheel.svg"
   inkscape:version="0.92.0 r15299"><metadata
     id="metadata85"><rdf:RDF><cc:Work
         rdf:about=""><dc:format>image/svg+xml</dc:format><dc:type
           rdf:resource="http://purl.org/dc/dcmitype/StillImage" /></cc:Work></rdf:RDF></metadata><defs
     id="defs83" /><sodipodi:namedview
     pagecolor="#ffffff"
     bordercolor="#666666"
     borderopacity="1"
     objecttolerance="10"
     gridtolerance="10"
     guidetolerance="10"
     inkscape:pageopacity="0"
     inkscape:pageshadow="2"
     inkscape:window-width="1600"
     inkscape:window-height="877"
     id="namedview81"
     showgrid="false"
     inkscape:zoom="1.84375"
     inkscape:cx="129.83079"
     inkscape:cy="273.29395"
     inkscape:window-x="-8"
     inkscape:window-y="-8"
     inkscape:window-maximized="1"
     inkscape:current-layer="Capa_1" /><g
     id="g50" /><g
     id="g52" /><g
     id="g54" /><g
     id="g56" /><g
     id="g58" /><g
     id="g60" /><g
     id="g62" /><g
     id="g64" /><g
     id="g66" /><g
     id="g68" /><g
     id="g70" /><g
     id="g72" /><g
     id="g74" /><g
     id="g76" /><g
     id="g78" /><path
     style="fill:#ff193d"
     d="M 256 0 C 185.695 0 121.94548 29.597484 75.771484 75.771484 L 139.38281 139.38281 L 202.99219 202.99219 L 256 256 L 256 181 L 256 91 L 256 0 z "
     id="path16" /><path
     inkscape:connector-curvature="0"
     style="fill:#ff4b00;fill-opacity:1"
     d="m 256,0 c 70.305,0 134.05453,29.59748 180.22852,75.77148 L 372.6172,139.38281 309.00781,202.99219 256,256 V 181 91 Z"
     id="path16-5" /><path
     inkscape:connector-curvature="0"
     style="fill:#ff9f00;fill-opacity:1"
     d="M 512,256 C 512,185.695 482.40252,121.94547 436.22852,75.771482 L 372.61719,139.3828 309.00781,202.99219 256,256 h 75 90 z"
     id="path16-5-2" /><path
     inkscape:connector-curvature="0"
     style="fill:#66bb00;fill-opacity:1"
     d="m 512,256 c 0,70.305 -29.59748,134.05453 -75.77148,180.22852 L 372.61719,372.6172 309.00781,309.00781 256,256 h 75 90 z"
     id="path16-5-2-6" /><path
     inkscape:connector-curvature="0"
     style="fill:#00cc71;fill-opacity:1"
     d="m 256,512 c 70.305,0 134.05453,-29.59748 180.22852,-75.77148 L 372.6172,372.61719 309.00781,309.00781 256,256 v 75 90 z"
     id="path16-5-2-6-1" /><path
     inkscape:connector-curvature="0"
     style="fill:#0095ff;fill-opacity:1"
     d="M 256,512 C 185.695,512 121.94547,482.40252 75.771484,436.22852 L 139.3828,372.61719 202.99219,309.00781 256,256 v 75 90 z"
     id="path16-5-2-6-1-4" /><path
     inkscape:connector-curvature="0"
     style="fill:#6b77e8;fill-opacity:1"
     d="m 0,256 c 0,70.305 29.59748,134.05453 75.771478,180.22852 L 139.38281,372.6172 202.99219,309.00781 256,256 H 181 90.999998 Z"
     id="path16-5-2-6-1-4-4" /><path
     inkscape:connector-curvature="0"
     style="fill:#b760ea;fill-opacity:1"
     d="M 6.4e-6,256 C 6.4e-6,185.695 29.597486,121.94547 75.771484,75.771484 L 139.38282,139.3828 202.99219,202.99219 256,256 H 181 91.000004 Z"
     id="path16-5-2-6-1-4-4-2" /></svg>