<?xml version="1.0" encoding="UTF-8" standalone="no"?>
<svg xmlns="http://www.w3.org/2000/svg" viewBox="0 0 512 512">
<path style="fill:#ff193d;" d="M 256 0 C 185.695 0 121.94548 29.597484 75.771484 75.771484 L 139.38281 139.38281 L 202.99219 202.99219 L 256 256 L 256 181 L 256 91 L 256 0 z "/>
<path style="fill:#ff4b00;" d="m 256,0 c 70.305,0 134.05453,29.59748 180.22852,75.77148 L 372.6172,139.38281 309.00781,202.99219 256,256 V 181 91 Z"/>
<path style="fill:#ff9f00;" d="M 512,256 C 512,185.695 482.40252,121.94547 436.22852,75.771482 L 372.61719,139.3828 309.00781,202.99219 256,256 h 75 90 z"/>
<path style="fill:#66bb00;" d="m 512,256 c 0,70.305 -29.59748,134.05453 -75.77148,180.22852 L 372.61719,372.6172 309.00781,309.00781 256,256 h 75 90 z"/>
<path style="fill:#00cc71;" d="m 256,512 c 70.305,0 134.05453,-29.59748 180.22852,-75.77148 L 372.6172,372.61719 309.00781,309.00781 256,256 v 75 90 z"/>
<path style="fill:#0095ff;" d="M 256,512 C 185.695,512 121.94547,482.40252 75.771484,436.22852 L 139.3828,372.61719 202.99219,309.00781 256,256 v 75 90 z"/>
<path style="fill:#6b77e8;" d="m 0,256 c 0,70.305 29.59748,134.05453 75.771478,180.22852 L 139.38281,372.6172 202.99219,309.00781 256,256 H 181 90.999998 Z"/>
<path style="fill:#b760ea;" d="M 6.4e-6,256 C 6.4e-6,185.695 29.597486,121.94547 75.771484,75.771484 L 139.38282,139.3828 202.99219,202.99219 256,256 H 181 91.000004 Z"/>
</svg>
