<?xml version="1.0" encoding="UTF-8"?>
<svg enable-background="new 0 0 385.331 385.331" version="1.1" viewBox="0 0 385.331 385.331" xml:space="preserve" xmlns="http://www.w3.org/2000/svg">
<path d="m264.94 156.66h108.27c6.833 0 11.934-5.39 11.934-12.211 0-6.833-5.101-11.85-11.934-11.838h-96.242v-96.435c0-6.833-5.197-12.03-12.03-12.03s-12.03 5.197-12.03 12.03v108.27c0 0.036 0.012 0.06 0.012 0.084 0 0.036-0.012 0.06-0.012 0.096-1e-3 6.713 5.316 12.043 12.029 12.031z"/>
<path d="m120.29 24.247c-6.821 0-11.838 5.113-11.838 11.934v96.242h-96.423c-6.833 0-12.03 5.197-12.03 12.03s5.197 12.03 12.03 12.03h108.27c0.036 0 0.06-0.012 0.084-0.012 0.036 0 0.06 0.012 0.096 0.012 6.713 0 12.03-5.317 12.03-12.03v-108.27c1e-3 -6.821-5.389-11.922-12.222-11.934z"/>
<path d="m120.39 228.67h-108.27c-6.833 0.012-11.934 5.39-11.934 12.223s5.101 11.85 11.934 11.838h96.242v96.423c0 6.833 5.197 12.03 12.03 12.03s12.03-5.197 12.03-12.03v-108.27c0-0.036-0.012-0.06-0.012-0.084 0-0.036 0.012-0.06 0.012-0.096 1e-3 -6.714-5.317-12.031-12.03-12.031z"/>
<path d="m373.3 228.67h-108.27c-0.036 0-0.06 0.012-0.084 0.012-0.036 0-0.06-0.012-0.096-0.012-6.713 0-12.03 5.317-12.03 12.03v108.27c0 6.833 5.39 11.922 12.223 11.934 6.821 0.012 11.838-5.101 11.838-11.922v-96.242h96.421c6.833 0 12.03-5.197 12.03-12.03s-5.196-12.031-12.03-12.043z"/>
</svg>
