<?xml version="1.0" encoding="UTF-8"?>
<svg version="1.1" viewBox="0 0 384.97 384.97" xml:space="preserve" xmlns="http://www.w3.org/2000/svg">
<path fill="white" d="m384.97 12.03c0-6.713-5.317-12.03-12.03-12.03h-108.09c-6.833 0-11.922 5.39-11.934 12.223 0 6.821 5.101 11.838 11.934 11.838h96.062l-0.193 96.519c0 6.833 5.197 12.03 12.03 12.03 6.833-0.012 12.03-5.197 12.03-12.03l0.193-108.37c0-0.036-0.012-0.06-0.012-0.084 1e-3 -0.037 0.013-0.061 0.013-0.097z"/>
<path fill="white" d="M120.496,0H12.403c-0.036,0-0.06,0.012-0.096,0.012C12.283,0.012,12.247,0,12.223,0C5.51,0,0.192,5.317,0.192,12.03    L0,120.399c0,6.833,5.39,11.934,12.223,11.934c6.821,0,11.838-5.101,11.838-11.934l0.192-96.339h96.242    c6.833,0,12.03-5.197,12.03-12.03C132.514,5.197,127.317,0,120.496,0z"/>
<path fill="white" d="m120.12 360.91h-96.062v-96.242c0-6.833-5.197-12.03-12.03-12.03s-12.031 5.196-12.031 12.03v108.09c0 0.036 0.012 0.06 0.012 0.084 0 0.036-0.012 0.06-0.012 0.096 0 6.713 5.317 12.03 12.03 12.03h108.09c6.833 0 11.922-5.39 11.934-12.223 1e-3 -6.82-5.1-11.837-11.933-11.837z"/>
<path fill="white" d="m372.75 252.91c-6.833 0-11.85 5.101-11.838 11.934v96.062h-96.242c-6.833 0-12.03 5.197-12.03 12.03s5.197 12.03 12.03 12.03h108.09c0.036 0 0.06-0.012 0.084-0.012 0.036-0.012 0.06 0.012 0.096 0.012 6.713 0 12.03-5.317 12.03-12.03v-108.09c1e-3 -6.833-5.389-11.934-12.222-11.934z"/>
</svg>
