<?xml version="1.0" encoding="UTF-8" standalone="no"?>
<svg
   xmlns:dc="http://purl.org/dc/elements/1.1/"
   xmlns:cc="http://creativecommons.org/ns#"
   xmlns:rdf="http://www.w3.org/1999/02/22-rdf-syntax-ns#"
   xmlns:svg="http://www.w3.org/2000/svg"
   xmlns="http://www.w3.org/2000/svg"
   xml:space="preserve"
   style="enable-background:new 0 0 512 512;"
   viewBox="0 0 512 512"
   y="0px"
   x="0px"
   id="Layer_1"
   version="1.1"><metadata
     id="metadata51"><rdf:RDF><cc:Work
         rdf:about=""><dc:format>image/svg+xml</dc:format><dc:type
           rdf:resource="http://purl.org/dc/dcmitype/StillImage" /><dc:title></dc:title></cc:Work></rdf:RDF></metadata><defs
     id="defs49" /><path
     id="path2"
     d="M317.89,256c0,30.72-24.747,54.613-54.613,54.613c-30.72,0-54.613-24.747-54.613-54.613  s24.747-54.613,54.613-54.613C293.144,201.387,317.89,225.28,317.89,256"
     style="fill:#006631;fill-opacity:1" /><path
     id="path4"
     d="M262.424,17.067c-40.107,0-82.773,96.427-82.773,238.933s42.667,238.933,82.773,238.933  c9.387,0,17.92-5.12,27.307-14.507c-5.12-5.973-8.533-14.507-8.533-23.04c0-21.333,18.773-38.4,40.107-35.84  C336.664,376.32,345.197,317.44,345.197,256C346.05,113.493,302.53,17.067,262.424,17.067 M262.424,512  c-56.32,0-99.84-112.64-99.84-256S206.957,0,262.424,0c56.32,0,100.693,112.64,100.693,256c0,67.413-10.24,130.56-28.16,179.2  l-2.56,7.68l-7.68-2.56c-2.56-0.853-4.267-0.853-6.827-0.853c-10.24,0-18.773,8.533-18.773,18.773c0,5.973,2.56,11.947,7.68,15.36  l6.827,5.12l-5.12,6.827C294.85,502.613,279.49,512,262.424,512"
     style="fill:#D1D4D1;" /><path
     id="path6"
     d="M364.824,112.64c-46.08,12.8-98.987,39.253-149.333,75.093  C131.864,246.613,70.424,317.44,62.744,365.227c-1.707,11.093,0,20.48,4.267,27.307c29.013,39.253,131.413,10.24,243.2-68.267  c87.893-61.44,147.627-128,154.453-173.227c1.707-12.8,0-23.04-6.827-31.573c-5.973-7.68-15.36-12.8-27.307-14.507  c-2.56,7.68-6.827,15.36-13.653,19.627c-7.68,5.12-17.067,7.68-27.307,5.973c-9.387-1.707-17.92-6.827-23.04-14.507  C366.53,115.2,365.677,113.493,364.824,112.64 M111.384,426.667c-28.16,0-47.787-8.533-58.88-23.893  c-6.827-10.24-9.387-23.893-6.827-40.107c8.533-52.053,72.533-128,159.573-188.587c55.467-38.4,112.64-67.413,162.133-79.36  l8.533-1.707l2.56,8.533c0.853,2.56,1.707,4.267,2.56,5.973c2.56,4.267,7.68,6.827,11.947,7.68c5.12,0.853,10.24,0,14.507-3.413  c5.12-3.413,7.68-9.387,7.68-15.36v-8.533l8.533,0.853c22.187,0.853,38.4,8.533,47.787,22.187l0,0  c9.387,11.947,12.8,27.307,9.387,44.373c-7.68,50.347-68.267,119.467-162.133,185.173  C229.997,401.067,159.17,426.667,111.384,426.667"
     style="fill:#BCBCBC;" /><path
     id="path8"
     d="M93.464,209.067c28.16,38.4,70.827,79.36,122.027,115.2c93.867,65.707,186.027,92.16,225.28,83.627  c9.387-1.707,15.36-5.973,18.773-11.093c25.6-45.227-32.427-127.147-149.333-209.067C200.984,111.787,94.317,81.067,67.01,119.467  c-5.12,7.68-6.827,17.92-3.413,30.72c8.533-0.853,16.213,1.707,23.893,5.973c7.68,5.12,12.8,13.653,14.507,23.04  s-0.853,18.773-5.973,27.307C95.17,207.36,94.317,208.213,93.464,209.067 M423.704,426.667c-54.613,0-141.653-34.133-217.6-87.893  c-55.467-38.4-101.547-83.627-130.56-125.44l-5.12-6.827l6.827-5.12c1.707-1.707,3.413-2.56,4.267-4.267  c2.56-4.267,4.267-9.387,3.413-14.507c-0.853-5.12-3.413-9.387-7.68-11.947c-5.12-3.413-11.093-4.267-17.067-2.56l-8.533,2.56  l-2.56-8.533c-6.827-22.187-5.12-40.107,4.267-52.907c38.4-52.907,163.84-7.68,267.093,64.853  c128,89.6,185.173,176.64,152.747,231.253c-5.973,9.387-15.36,16.213-29.867,18.773C437.357,425.813,430.53,426.667,423.704,426.667  "
     style="fill:#AAAAAA;" /><path
     id="path10"
     d="M426.264,74.24c-11.093-16.213-34.133-20.48-50.347-8.533c-16.213,11.093-20.48,34.133-8.533,50.347  c5.12,7.68,13.653,12.8,23.04,14.507c1.707,0,4.267,0.853,5.973,0.853c7.68,0,14.507-2.56,20.48-6.827  c7.68-5.12,12.8-13.653,14.507-23.04C433.944,92.16,431.384,82.773,426.264,74.24"
     style="fill:#3b39d3;fill-opacity:1" /><path
     id="path12"
     d="M86.637,156.16c-16.213-11.093-38.4-7.68-50.347,8.533c-11.093,16.213-7.68,38.4,8.533,50.347  c5.973,4.267,13.653,6.827,20.48,6.827c1.707,0,4.267,0,5.973-0.853c9.387-1.707,17.92-6.827,23.04-14.507  C107.117,189.44,102.85,167.253,86.637,156.16"
     style="fill:#ec3e71;fill-opacity:1" /><path
     id="path14"
     d="M317.89,421.547c-19.627,0-35.84,16.213-35.84,35.84c0,19.627,16.213,35.84,35.84,35.84  c19.627,0,35.84-16.213,35.84-35.84C353.73,437.76,337.517,421.547,317.89,421.547"
     style="fill:#f2681f;fill-opacity:1" /></svg>
